<svg id="Layer_1" enable-background="new 0 0 496 496" height="512" viewBox="0 0 496 496" width="512" xmlns="http://www.w3.org/2000/svg"><path d="m393.684 334.13c17.459 15.049 28.575 37.254 28.813 62.057.433 45.122-35.89 82.731-81.001 83.789-46.753 1.097-84.996-36.473-84.996-82.976 0-25.132 11.168-47.659 28.819-62.873 2.002-1.725 3.181-4.215 3.181-6.858v-259.431c0-27.97 22.17-51.369 50.137-51.831 28.565-.472 51.863 22.536 51.863 50.993 0 2.826 0 262.073 0 260.268 0 2.645 1.18 5.135 3.184 6.862z" fill="#c1fefa"/><path d="m293.539 44.869c4.127-8.554 16.901-5.484 16.852 4.013-.001.252-.001 298.594-.001 298.342 0 2.615-1.167 5.085-3.16 6.778-17.588 14.942-28.535 35.141-32.121 56.608-1.645 9.85-15.807 10.075-17.46.226-4.65-27.699 4.86-57.111 27.703-76.739 1.98-1.702 3.149-4.161 3.149-6.772v-260.325c-.001-7.931 1.809-15.438 5.038-22.131z" fill="#d9fffd"/><path d="m376.5 397c0 20.402-16.598 37-37 37s-37-16.598-37-37c0-14.675 8.587-27.38 21-33.358v-200.642c0-8.837 7.163-16 16-16s16 7.163 16 16v200.642c12.413 5.978 21 18.683 21 33.358zm-276-353c0 24.262-19.738 44-44 44s-44-19.738-44-44 19.738-44 44-44 44 19.738 44 44zm-32 0c0-6.617-5.383-12-12-12s-12 5.383-12 12 5.383 12 12 12 12-5.383 12-12zm150.197 130.549c-6.815-5.624-16.899-4.657-22.524 2.159-21.679 26.279-64.673 10.972-64.673-23.208v-47c0-34.151 42.972-49.504 64.672-23.21 5.625 6.815 15.71 7.78 22.524 2.155 6.815-5.625 7.78-15.709 2.155-22.524-13.071-15.838-32.334-24.921-52.851-24.921-37.771 0-68.5 30.729-68.5 68.5v47c0 37.771 30.729 68.5 68.5 68.5 20.521 0 39.787-9.086 52.856-24.927 5.624-6.816 4.658-16.9-2.159-22.524zm264.803-102.549c0 8.837-7.163 16-16 16h-61v68h41c8.837 0 16 7.163 16 16s-7.163 16-16 16h-41v68h21c8.837 0 16 7.163 16 16s-7.163 16-16 16h-21v36.11c20.432 18.722 32 44.863 32 72.89 0 54.589-44.411 99-99 99s-99-44.411-99-99c0-28.026 11.568-54.168 32-72.89v-257.11c0-36.944 30.056-67 67-67 33.197 0 60.817 24.273 66.082 56h61.918c8.837 0 16 7.163 16 16zm-77 325c0-20.799-9.416-40.065-25.835-52.86-3.891-3.031-6.165-7.688-6.165-12.62v-264.52c0-19.299-15.701-35-35-35s-35 15.701-35 35v264.52c0 4.933-2.274 9.589-6.165 12.62-16.419 12.795-25.835 32.061-25.835 52.86 0 36.944 30.056 67 67 67s67-30.056 67-67z"/></svg>